name analog
datacolumns 19
datarows 35
range 0.1485 0.1655
endheader
time	ground_force_vx	ground_force_vy	ground_force_vz	ground_force_px	ground_force_py	ground_force_pz	l_ground_force_vx	l_ground_force_vy	l_ground_force_vz	l_ground_force_px	l_ground_force_py	l_ground_force_pz	ground_torque_x	ground_torque_y	ground_torque_z	l_ground_torque_x	l_ground_torque_y	l_ground_torque_z
0.1485	-0.0	-0.0	-0.0	0.5862610936164856	30.342514038085938	-217.10470581054688	3.681256055831909	-44.86121368408203	-284.8832092285156	-35.3615837097168	16.277971267700195	75.0037612915039	-0.0	-0.0	-0.0	54836.796875	-26857.181640625	3392.005126953125
0.149	-0.0	-0.0	-0.0	0.108236938714981	30.686288833618164	-217.2056579589844	4.2518157958984375	-45.16391754150391	-284.135009765625	-35.227760314941406	16.053388595581055	75.68009185791016	-0.0	-0.0	-0.0	54136.19140625	-26651.36328125	3265.187255859375
0.1495	-0.0	-0.0	-0.0	-0.369922399520874	30.985490798950195	-217.00473022460935	4.04898738861084	-44.98730850219727	-282.114501953125	-35.3427734375	16.46444320678711	76.48136901855469	-0.0	-0.0	-0.0	53832.71875	-26605.021484375	3282.01611328125
0.15	-0.0	-0.0	-0.0	-1.0518794059753418	31.195640563964844	-219.07171630859372	4.296392440795898	-45.65581130981445	-281.7139892578125	-35.09980392456055	16.053693771362305	75.53466796875	-0.0	-0.0	-0.0	53789.52734375	-26154.955078125	3172.060546875
0.1505	-0.0	-0.0	-0.0	-1.784210205078125	31.81955337524414	-222.1235198974609	4.276673793792725	-45.82579803466797	-280.9420166015625	-35.3934440612793	16.233741760253906	76.75951385498047	-0.0	-0.0	-0.0	53128.51171875	-25881.828125	3053.0029296875
0.151	-0.0	-0.0	-0.0	-2.376664161682129	32.11893844604492	-224.49566650390625	3.9534525871276855	-46.047271728515625	-278.1750793457031	-35.09986877441406	16.07223129272461	75.3285903930664	-0.0	-0.0	-0.0	52681.703125	-25497.482421875	2771.145751953125
0.1515	-0.0	-0.0	-0.0	-2.694448232650757	33.03535079956055	-226.94021606445312	3.3209826946258545	-46.45720672607422	-277.8262634277344	-35.44353485107422	16.23404884338379	74.9626693725586	-0.0	-0.0	-0.0	52435.078125	-24950.771484375	2514.290771484375
0.152	-0.0	-0.0	-0.0	-2.5158677101135254	33.43800735473633	-227.57492065429688	2.2815301418304443	-46.97333908081055	-277.646484375	-35.18219757080078	15.96771240234375	75.3000717163086	-0.0	-0.0	-0.0	52241.734375	-24817.375	2278.457275390625
0.1525	-0.0	-0.0	-0.0	-1.8163342475891116	33.65204620361328	-227.82940673828125	1.4972679615020752	-47.068458557128906	-276.528076171875	-35.45780563354492	15.996845245361328	75.97278594970703	-0.0	-0.0	-0.0	52024.3984375	-24416.578125	2003.9124755859373
0.153	-0.0	-0.0	-0.0	-1.5736271142959597	33.74102020263672	-227.6449279785156	1.3163690567016602	-47.34377670288086	-275.2572326660156	-35.2143440246582	16.23447036743164	76.00083923339844	-0.0	-0.0	-0.0	51832.81640625	-24094.162109375	1574.17919921875
0.1535	-0.0	-0.0	-0.0	-1.3455471992492676	33.69867706298828	-226.16262817382807	0.933617353439331	-47.06823348999024	-275.25738525390625	-35.21430587768555	16.047109603881836	75.357421875	-0.0	-0.0	-0.0	51806.96875	-23586.9921875	1390.201171875
0.154	-0.0	-0.0	-0.0	-1.0036985874176023	33.75568008422852	-224.26925659179688	1.0398461818695068	-47.54164505004883	-275.1891784667969	-35.12482452392578	15.982056617736816	74.68553161621094	-0.0	-0.0	-0.0	51922.9609375	-23332.1953125	1296.3330078125
0.1545	-0.0	-0.0	-0.0	-1.622901201248169	34.119850158691406	-223.59288024902344	0.7589015960693359	-47.686302185058594	-279.38885498046875	-35.06000518798828	15.892048835754396	76.7314453125	-0.0	-0.0	-0.0	52276.859375	-23362.751953125	1090.975341796875
0.155	-0.0	-0.0	-0.0	-1.742677092552185	34.42892837524414	-224.75030517578125	0.4190217852592468	-48.424713134765625	-283.4813842773437	-35.28689956665039	16.554412841796875	74.65630340576172	-0.0	-0.0	-0.0	52902.0390625	-23660.13671875	894.3259887695312
0.1555	-0.0	-0.0	-0.0	-2.14105224609375	34.639434814453125	-226.00442504882807	0.298245757818222	-48.51298141479492	-289.5130310058594	-35.16508102416992	16.145153045654297	76.92382049560547	-0.0	-0.0	-0.0	54357.9453125	-23881.93359375	678.3499145507812
0.156	-0.0	-0.0	-0.0	-3.19582748413086	34.63939666748047	-227.22280883789065	0.701943576335907	-48.978816986083984	-294.2082824707031	-34.97024154663086	16.096500396728516	74.78590393066406	-0.0	-0.0	-0.0	55329.41796875	-24186.44140625	586.517578125
0.1565	-0.0	-0.0	-0.0	-3.365588665008545	34.81761932373047	-229.1505126953125	0.9114407896995544	-48.69729995727539	-299.4144897460937	-35.214107513427734	16.15363883972168	76.02899932861328	-0.0	-0.0	-0.0	56379.59375	-24501.509765625	532.9954833984375
0.157	-0.0	-0.0	-0.0	-4.201040744781494	34.971527099609375	-230.97967529296875	1.1775022745132446	-48.6331672668457	-302.0474853515625	-35.14106369018555	16.46444320678711	75.23149871826172	-0.0	-0.0	-0.0	57314.2890625	-24597.275390625	355.2286071777344
0.1575	-0.0	-0.0	-0.0	-4.347051620483398	35.498146057128906	-235.02426147460935	0.9838941693305968	-48.43240737915039	-304.20623779296875	-35.41721725463867	15.900224685668944	76.02873229980469	-0.0	-0.0	-0.0	57568.6484375	-24570.3671875	233.79800415039065
0.158	-0.0	-0.0	-0.0	-4.363775730133057	36.18694305419922	-238.9113006591797	1.0727182626724243	-48.27165222167969	-306.4280090332031	-35.44245147705078	16.12156105041504	75.6490478515625	-0.0	-0.0	-0.0	57867.25390625	-24290.115234375	-19.560583114624023
0.1585	-0.0	-0.0	-0.0	-3.7709977626800537	37.102386474609375	-242.05702209472656	0.2097368836402893	-48.51258087158203	-310.7125549316406	-35.40852355957031	16.431598663330078	75.07035064697266	-0.0	-0.0	-0.0	58201.84375	-24341.81640625	-192.91102600097656
0.159	-0.0	-0.0	-0.0	-3.463614225387573	38.19593048095703	-242.4103546142578	-0.1930777430534362	-48.930213928222656	-311.5048828125	-35.294769287109375	16.2274169921875	74.97549438476562	-0.0	-0.0	-0.0	58975.73828125	-24236.595703125	-516.8543090820312
0.1595	-0.0	-0.0	-0.0	-2.393278121948242	38.997955322265625	-244.4005126953125	-0.6618281006813049	-49.354976654052734	-313.4106750488281	-35.53025817871094	16.212121963500977	75.3262939453125	-0.0	-0.0	-0.0	59378.875	-24505.66796875	-676.4468994140625
0.16	-0.0	-0.0	-0.0	-2.578413724899292	39.64779281616211	-246.07162475585935	-0.8308185338973999	-49.388858795166016	-317.8822021484375	-35.3272590637207	16.257843017578125	74.4957275390625	-0.0	-0.0	-0.0	60253.59375	-24281.189453125	-814.064697265625
0.1605	-0.0	-0.0	-0.0	-2.1498448848724365	40.18902587890625	-248.0865478515625	-1.0169281959533691	-49.722957611083984	-321.50054931640625	-35.2227783203125	16.3654842376709	76.02794647216797	-0.0	-0.0	-0.0	60851.0078125	-24480.68359375	-900.3800659179688
0.161	-0.0	-0.0	-0.0	-1.7187988758087158	40.65834426879883	-248.4386749267578	-1.354386806488037	-50.08712768554688	-326.8302917480469	-35.32136535644531	16.098854064941406	75.4547119140625	-0.0	-0.0	-0.0	61588.046875	-24773.244140625	-992.5986328125
0.1615	-0.0	-0.0	-0.0	-2.051841735839844	40.952579498291016	-249.53286743164065	-1.4666717052459717	-50.26974487304688	-330.8677062988281	-35.47296905517578	16.29912757873535	75.36170196533203	-0.0	-0.0	-0.0	62608.67578125	-24925.7890625	-1348.6934814453125
0.162	-0.0	-0.0	-0.0	-2.084606647491455	41.16917037963867	-250.0154266357422	-1.9426928758621216	-50.222633361816406	-336.4540405273437	-35.47288131713867	15.744686126708984	74.97470092773438	-0.0	-0.0	-0.0	63936.90625	-25152.365234375	-1620.8994140625
0.1625	-0.0	-0.0	-0.0	-2.7563273906707764	41.52956771850586	-251.6874237060547	-2.330012321472168	-50.21357345581055	-339.9454040527344	-35.45848846435547	16.568737030029297	75.71311950683594	-0.0	-0.0	-0.0	64546.34765625	-25347.4140625	-1826.9466552734373
0.163	-0.0	-0.0	-0.0	-3.2586357593536377	41.78795623779297	-252.0404510498047	-2.9509122371673584	-50.25504302978516	-344.6126708984375	-35.627986907958984	16.170886993408203	75.99015045166016	-0.0	-0.0	-0.0	65483.03125	-25616.6015625	-2139.76416015625
0.1635	-0.0	-0.0	-0.0	-3.389999389648437	42.18214797973633	-257.85845947265625	-3.683955192565918	-50.39917755126953	-348.6011962890625	-35.223167419433594	16.00056266784668	75.36262512207031	-0.0	-0.0	-0.0	66459.84375	-25505.73046875	-2365.06396484375
0.164	-0.0	-0.0	-0.0	-3.5918333530426025	42.23833465576172	-260.3487548828125	-3.94532322883606	-50.808197021484375	-353.1390991210937	-35.40216064453125	16.047815322875977	76.1566162109375	-0.0	-0.0	-0.0	67503.7734375	-25825.2890625	-2696.406005859375
0.1645	-0.0	-0.0	-0.0	-3.357062578201294	42.64683532714844	-262.50506591796875	-4.346828460693359	-50.91959762573242	-357.3481750488281	-35.51118469238281	16.08111000061035	75.23348999023438	-0.0	-0.0	-0.0	68228.71875	-26036.236328125	-2901.21337890625
0.165	-0.0	-0.0	-0.0	-2.6064562797546387	42.327274322509766	-266.29766845703125	-4.011049270629883	-50.85018157958984	-362.1615905761719	-35.5481071472168	16.188295364379883	76.98834991455078	-0.0	-0.0	-0.0	69162.7265625	-26322.533203125	-3063.401611328125
0.1655	-0.0	-0.0	-0.0	-1.896631121635437	42.63730239868164	-271.67291259765625	-3.637142181396485	-51.44546890258789	-368.00579833984375	-35.40567398071289	16.284503936767578	76.19561004638672	-0.0	-0.0	-0.0	69981.828125	-26591.18359375	-3038.16064453125
